:SAMPLES-PER-SECOND 30
:FULLY-SPECIFIED
:DEGREES
234
root  -27.0626 40.7559 -0.00927313 -151.611 -87.2682 148.515
RightUpLeg  -4.85161 -12.8666 -5.48844
RightLeg  14.4666 -8.40024 2.41211
RightFoot  -5.45948 0.078486 -2.2474
RightToes  0.000482159 0.542163 -0.142577
Spine  10.1009 -2.77711 6.13322
Spine1  22.2039 -2.04111 -0.739479
HEad  51.0142 -3.9081 -0.425227
LeftShoulder1  7.60748 -13.0754 -39.6572
LeftArm  0.8596 -6.44383 -35.4723
LeftForeArm  36.6874 -27.54 -3.96915
LeftHand  -0.25398 0.0180481 5.50724
RightShoulder  5.52492 10.1302 34.5679
RightArm  -4.15037 7.6689 35.219
RightForeArm  18.2014 9.0163 7.28808
RightHand  -1.07918 3.18835 -14.8267
LeftUpLeg  -6.49151 14.0344 5.26323
LeftLeg  11.7006 1.46497 -0.608225
LeftFoot  -0.805568 0.40502 -4.33733
LeftToes  1.06244e-005 4.65856e-005 -8.18505e-006
235
root  -27.0183 40.8139 0.0587428 -150.404 -87.2699 147.812
RightUpLeg  -5.0058 -12.2328 -5.56155
RightLeg  13.455 -9.04842 2.64192
RightFoot  -4.85897 0.0907444 -2.18325
RightToes  0.000482159 0.542163 -0.142577
Spine  9.96646 -2.83378 5.62844
Spine1  22.0337 -2.33216 -0.376486
HEad  50.9991 -4.62475 -0.0728913
LeftShoulder1  7.6581 -13.1602 -39.7239
LeftArm  1.98722 -7.12257 -36.0688
LeftForeArm  37.7085 -28.2347 -4.06799
LeftHand  -0.25398 0.0180481 5.50724
RightShoulder  5.53678 10.1968 34.4588
RightArm  -4.86417 7.37671 34.7957
RightForeArm  18.6509 8.49971 7.18496
RightHand  -1.05093 2.94259 -14.8515
LeftUpLeg  -5.75618 11.5497 5.04691
LeftLeg  10.5591 3.09943 -0.763999
LeftFoot  -1.55116 0.346933 -3.9457
LeftToes  1.06244e-005 4.65856e-005 -8.18505e-006
236
root  -26.9685 40.8851 0.146823 -145.825 -87.2037 143.805
RightUpLeg  -5.23018 -11.8192 -5.83493
RightLeg  12.4041 -9.53464 2.87695
RightFoot  -4.18806 0.101664 -2.07965
RightToes  0.000482159 0.542163 -0.142577
Spine  9.84176 -2.85345 4.82827
Spine1  21.6669 -2.61632 -0.00801982
HEad  51.0854 -5.41541 0.218782
LeftShoulder1  7.68776 -13.2397 -39.6851
LeftArm  2.99607 -7.61564 -36.66
LeftForeArm  38.4529 -28.7409 -4.14103
LeftHand  -0.25398 0.0180481 5.50724
RightShoulder  5.54909 10.2205 34.4784
RightArm  -5.3536 7.2633 34.3958
RightForeArm  18.8775 8.0962 7.112
RightHand  -1.02606 2.78652 -14.771
LeftUpLeg  -5.31651 9.12861 4.77393
LeftLeg  8.73385 5.29832 -1.22218
LeftFoot  -1.02231 0.321484 -3.49483
LeftToes  1.06244e-005 4.65856e-005 -8.18505e-006
237
root  -26.9266 40.9505 0.251243 -140.634 -87.0988 139.082
RightUpLeg  -5.41424 -11.5041 -6.18658
RightLeg  11.5179 -9.92633 3.02933
RightFoot  -3.57448 0.10774 -1.9435
RightToes  0.000482159 0.542163 -0.142577
Spine  9.78328 -2.81805 3.88356
Spine1  21.2778 -2.88136 0.495997
HEad  51.1418 -6.29785 0.442057
LeftShoulder1  7.71689 -13.3338 -39.6057
LeftArm  3.85209 -7.91317 -37.1461
LeftForeArm  38.9913 -29.2351 -4.22265
LeftHand  -0.25398 0.0180481 5.50724
RightShoulder  5.56595 10.228 34.5779
RightArm  -5.64366 7.2923 34.0271
RightForeArm  18.8995 7.92914 7.06722
RightHand  -1.00842 2.79403 -14.5125
LeftUpLeg  -5.08465 7.54103 4.53388
LeftLeg  6.9827 7.10714 -1.83478
LeftFoot  0.098204 0.322435 -3.22445
LeftToes  1.06244e-005 4.65856e-005 -8.18505e-006
238
root  -26.8974 41.0001 0.375921 -138.152 -87.0107 136.899
RightUpLeg  -5.46777 -11.1363 -6.44902
RightLeg  10.7732 -10.2796 3.0776
RightFoot  -3.05176 0.105075 -1.73514
RightToes  0.000482159 0.542163 -0.142577
Spine  9.79442 -2.73531 3.10169
Spine1  20.9605 -3.0619 1.00551
HEad  50.963 -7.28068 0.636597
LeftShoulder1  7.77495 -13.4542 -39.6215
LeftArm  4.61843 -8.11341 -37.382
LeftForeArm  39.4117 -29.5934 -4.28074
LeftHand  -0.25398 0.0180481 5.50724
RightShoulder  5.57227 10.2427 34.5791
RightArm  -5.88063 7.32612 33.9364
RightForeArm  18.5969 8.08761 7.02151
RightHand  -1.02287 2.96413 -14.4302
LeftUpLeg  -4.87121 6.7397 4.41253
LeftLeg  5.68313 8.1279 -2.4442
LeftFoot  0.986307 0.320461 -3.02285
LeftToes  1.06244e-005 4.65856e-005 -8.18505e-006
239
root  -26.8723 41.0372 0.526453 -139.107 -86.9535 138.044
RightUpLeg  -5.40639 -10.7929 -6.60952
RightLeg  10.0355 -10.514 3.14405
RightFoot  -2.53687 0.0986804 -1.50477
RightToes  0.000482159 0.542163 -0.142577
Spine  9.77783 -2.63684 2.67182
Spine1  20.7622 -3.10428 1.27974
HEad  50.6408 -8.2683 0.744852
LeftShoulder1  7.85205 -13.5721 -39.7496
LeftArm  5.32859 -8.30601 -37.3668
LeftForeArm  39.5698 -29.6071 -4.27582
LeftHand  -0.25398 0.0180481 5.50724
RightShoulder  5.5595 10.2728 34.4113
RightArm  -6.04437 7.37696 34.2473
RightForeArm  18.0106 8.51479 6.97841
RightHand  -1.0578 3.14168 -14.6165
LeftUpLeg  -4.63119 6.23029 4.36869
LeftLeg  4.71384 8.75696 -2.94947
LeftFoot  1.51747 0.291761 -2.67142
LeftToes  1.06244e-005 4.65856e-005 -8.18505e-006
